<?xml version="1.0" encoding="utf-8"?>
<!-- Generator: Adobe Illustrator 27.8.0, SVG Export Plug-In . SVG Version: 6.00 Build 0)  -->
<svg version="1.0" id="katman_1" xmlns="http://www.w3.org/2000/svg" xmlns:xlink="http://www.w3.org/1999/xlink" x="0px" y="0px"
	 viewBox="0 0 841.89 595.28" style="enable-background:new 0 0 841.89 595.28;" xml:space="preserve">
<style type="text/css">
	.st0{fill-rule:evenodd;clip-rule:evenodd;fill:#0F0F21;}
</style>
<path class="st0" d="M753.76,305.32c1.45-1.69,4.02-1.61,5.34,0.19h-0.01l5.02,6.87c0.95,1.32,0.95,3.14-0.05,4.43
	c-8.72,11.31-24,22.2-42.43,23.25c-14.55,0.83-26.55-4.69-33.09-15.11c-1.29-2.06-4.15-2.18-5.6-0.23
	c-7.75,10.4-17.13,18.54-26.9,19.1c-17.4,0.99-22.32-10.68-18.02-36.42c0.43-2.56-1.81-4.73-4.23-4.09
	c-3.61,0.96-7.44,1.38-11.33,1.04c-1.62-0.14-3.13,0.85-3.62,2.45c-6.44,21.16-21.77,40.84-41.61,41.97
	c-12.67,0.72-31.59-6.53-29.69-36.85c0.16-2.47-2.06-4.41-4.34-3.72c-3.97,1.21-8.25,1.78-12.6,1.41c-1.61-0.14-3.12,0.85-3.61,2.45
	c-6.44,21.16-21.77,40.84-41.61,41.97c-12.67,0.72-31.59-6.53-29.69-36.85c0.16-2.47-2.06-4.41-4.34-3.72
	c-3.97,1.21-8.25,1.79-12.6,1.41c-1.61-0.14-3.12,0.85-3.61,2.45c-6.44,21.16-21.77,40.84-41.61,41.97
	c-9.01,0.52-21.2-3.01-26.79-16.01c-1.08-2.51-4.31-2.89-5.91-0.71c-7.83,10.69-17.38,19.13-27.34,19.7
	c-10.21,0.59-15.8-3.51-18.23-10.82c-0.86-2.58-4.09-3.19-5.83-1.15c-6.97,8.2-14.91,14.2-22.95,14.66
	c-12.39,0.72-19.52-8.46-20.1-19.59c-0.68-12.98,4.93-28.17,11.2-44.75c0.87-2.3-0.7-4.8-3.08-4.9c-3.61-0.15-7.74-0.53-11.62-1.26
	c-1.75-0.34-3.45,0.75-3.95,2.53c-7.41,26.46-18.76,52.4-28.34,67.73c-1.07,1.72-3.28,2.17-4.89,0.99l-7.31-5.38
	c-1.5-1.11-1.91-3.25-0.9-4.87c13.84-22.17,26.12-56.87,30.36-82.53c0.27-1.64,1.6-2.86,3.2-2.95l9.72-0.56
	c2.23-0.13,3.99,1.95,3.58,4.24l-0.04,0.24c-0.36,2.04,1,3.95,2.96,4.22c8.72,1.2,21.75,1.35,30.6,1c2.49-0.09,4.24,2.48,3.34,4.88
	c-7.1,18.88-16.6,45.04-16.06,55.39c0.25,4.68,2.31,7.23,5.94,7.02c6.95-0.4,17.63-14.37,25.73-29.92c0.15-0.28,0.26-0.58,0.32-0.89
	c2.73-12.18,6.78-25.76,10.87-39.48l0.25-0.85c0.42-1.43,1.66-2.43,3.1-2.52l11.65-0.66c2.4-0.14,4.2,2.28,3.47,4.67
	c-0.6,1.97-1.2,3.93-1.79,5.87c-10.25,33.59-18.86,61.8-7.26,61.14c7.58-0.43,18.31-13.29,27.55-31.59c0.15-0.3,0.26-0.62,0.32-0.96
	c0.46-2.39,1.03-4.89,1.72-7.51c5.38-21.51,11.49-42.81,17.6-64.14c1.89-6.58,3.77-13.17,5.64-19.76c0.41-1.46,1.66-2.48,3.12-2.57
	l11.96-0.68c2.43-0.14,4.23,2.3,3.46,4.71c-4.77,14.98-9.77,30.93-14.51,46.29c-1,3.24,2.47,5.93,5.21,4.06
	c4.72-3.23,10.17-5.37,15.45-5.67c13.45-0.77,22.61,10.3,23.49,26.98c0.05,0.88,0.1,1.83,0.12,2.8c0.05,1.85,1.43,3.34,3.2,3.49
	c6.33,0.56,12.81-1.32,17.81-5.78c0.51-0.46,0.86-1.08,1.03-1.75c4.96-19.25,10.43-38.36,15.9-57.49c1.88-6.55,3.75-13.1,5.61-19.66
	c0.41-1.46,1.66-2.48,3.12-2.57l11.95-0.68c2.43-0.14,4.23,2.3,3.47,4.71c-4.78,14.98-9.77,30.93-14.51,46.29
	c-1,3.24,2.47,5.93,5.21,4.06c4.72-3.23,10.17-5.37,15.45-5.67c13.46-0.77,22.61,10.3,23.49,26.98c0.05,0.88,0.1,1.83,0.12,2.8
	c0.04,1.85,1.43,3.34,3.2,3.49c6.33,0.56,12.81-1.32,17.81-5.78c0.51-0.46,0.86-1.08,1.04-1.75c4.96-19.25,10.43-38.36,15.9-57.49
	c1.88-6.55,3.75-13.1,5.61-19.66c0.42-1.46,1.66-2.48,3.12-2.57l11.96-0.68c2.43-0.14,4.23,2.3,3.46,4.71
	c-4.77,14.98-9.76,30.93-14.51,46.29c-1,3.24,2.47,5.93,5.21,4.06c4.72-3.23,10.17-5.37,15.45-5.67
	c13.45-0.77,22.61,10.3,23.49,26.98c0.05,0.89,0.1,1.83,0.12,2.8c0.05,1.84,1.43,3.34,3.19,3.49c6.13,0.54,12.39-1.2,17.32-5.35
	c0.55-0.46,0.93-1.1,1.11-1.81c5.65-21.76,13.94-50.27,21.93-77.55c0.42-1.44,1.66-2.44,3.11-2.53l11.85-0.68
	c2.4-0.14,4.2,2.26,3.48,4.65c-11,36.53-19.97,68.49-24.92,87.34c-6.58,25.57-6.83,32.95,0.65,32.52
	c6.28-0.36,14.73-9.27,22.71-22.73c0.32-0.53,0.48-1.13,0.51-1.74c1.04-26.94,17.56-51.46,42.12-52.86
	c16.45-0.94,25.46,11.48,26.1,23.71c1.23,23.34-21.84,38.26-44.2,36.88c-2.6-0.16-4.5,2.63-3.35,5.06
	c3.12,6.68,9.7,10.41,20.92,9.76C735.51,322.76,746.71,313.54,753.76,305.32z M384.18,311.87c-5.31,21.27,1.14,29.59,9.47,29.12
	c13.68-0.79,26.91-25.85,25.89-45.19c-0.45-8.45-5.39-12.85-11.16-12.52C398.77,283.83,388.42,294.9,384.18,311.87z M476.04,306.6
	c-5.3,21.27,1.14,29.59,9.47,29.12h-0.01c13.68-0.78,26.92-25.85,25.9-45.19c-0.44-8.45-5.39-12.85-11.16-12.52
	C490.63,278.56,480.28,289.63,476.04,306.6z M567.9,301.34c-5.3,21.27,1.14,29.59,9.47,29.12h-0.01
	c13.67-0.79,26.92-25.85,25.9-45.19c-0.44-8.45-5.39-12.85-11.16-12.52C582.49,273.3,572.14,284.37,567.9,301.34z M733.99,273.54
	c-0.08-5.57-3.51-9.61-9.06-9.29h-0.01c-10.91,0.63-19.45,12.44-22.17,26.77c-0.43,2.28,1.23,4.4,3.46,4.35
	C720.31,295.02,734.44,285.72,733.99,273.54z M222.41,283.89c-1.43-43.18-29.5-71.68-71-70.2c-17.82,0.81-38.2,7.57-53.54,19.65
	c-1.44,1.14-1.82,3.23-0.84,4.81l6.51,10.6c1.11,1.81,3.47,2.18,5.09,0.84c11.67-9.7,27.61-16.06,42.93-16.73
	c28.43-1.18,49.33,17.02,50.54,52.19c1.53,40.95-26,87.79-70.23,90.32c-1.54,0.09-3.15,0.12-4.76,0.12c-2.25,0-3.92-2.2-3.36-4.48
	c8.53-34.43,18.49-71.36,28.64-105.73c0.7-2.39-1.09-4.77-3.48-4.63L136,261.4c-1.45,0.09-2.69,1.1-3.12,2.54
	c-9.76,33.77-19.52,70.39-28.31,104.76c-0.51,1.98-2.52,3.12-4.39,2.48c-4.58-1.56-8.77-3.34-12.34-5.42
	c-1.71-1-3.87-0.29-4.75,1.54l-5.55,11.61c-0.82,1.72-0.22,3.82,1.4,4.74c12.59,7.14,31.71,11.22,50.93,10.13
	c63.24-3.62,94.22-62.03,92.54-109.88V283.89z M346.68,230.83c-7.69,0.44-14.52,9.09-14.03,18.2c0.31,6,4.17,10.02,10.15,9.68
	c7.69-0.44,14.71-9.54,14.25-18.21C356.74,234.49,352.24,230.51,346.68,230.83z"/>
</svg>
